<?xml version="1.0" encoding="utf-8"?>
<!-- Generator: Adobe Illustrator 24.1.1, SVG Export Plug-In . SVG Version: 6.00 Build 0)  -->
<svg version="1.1" id="Layer_1" xmlns="http://www.w3.org/2000/svg" xmlns:xlink="http://www.w3.org/1999/xlink" x="0px" y="0px"
	 viewBox="0 0 512 512" style="enable-background:new 0 0 512 512;" xml:space="preserve">
<style type="text/css">
	.st0{fill-rule:evenodd;clip-rule:evenodd;}
</style>
<g>
	<path d="M256,0H73.1C32.7,0,0,32.7,0,73.1v365.7C0,479.3,32.7,512,73.1,512h292.6c40.4,0,73.1-32.7,73.1-73.1V256h-36.6v182.9
		c0,20.2-16.4,36.6-36.6,36.6H73.1c-20.2,0-36.6-16.4-36.6-36.6V73.1C36.6,53,53,36.6,73.1,36.6H256V0z"/>
	<path class="st0" d="M420.6,0c10.1,0,18.3,8.2,18.3,18.3v73.1c0,10.1-8.2,18.3-18.3,18.3h-73.1c-10.1,0-18.3-8.2-18.3-18.3
		s8.2-18.3,18.3-18.3h54.9V18.3C402.3,8.2,410.5,0,420.6,0z"/>
	<path class="st0" d="M402.3,91.4c0-10.1,8.2-18.3,18.3-18.3h73.1c10.1,0,18.3,8.2,18.3,18.3s-8.2,18.3-18.3,18.3h-54.9v54.9
		c0,10.1-8.2,18.3-18.3,18.3c-10.1,0-18.3-8.2-18.3-18.3V91.4z"/>
</g>
</svg>
