<?xml version="1.0" encoding="utf-8"?>
<!-- Generator: Adobe Illustrator 27.0.0, SVG Export Plug-In . SVG Version: 6.00 Build 0)  -->
<svg version="1.1" xmlns="http://www.w3.org/2000/svg" xmlns:xlink="http://www.w3.org/1999/xlink" x="0px" y="0px"
	 viewBox="0 0 612 792" style="enable-background:new 0 0 612 792;" xml:space="preserve">
<style type="text/css">
	.st0{fill:#EF3C55;}
	.st1{fill:#FFFFFF;}
</style>
<g id="Layer_2">
	<path class="st0" d="M474.36,423.35L304.8,592.91L135.24,423.35C-4.59,283.51,164.97,113.95,304.8,253.79
		C448.73,109.86,618.29,279.42,474.36,423.35z"/>
</g>
<g id="Layer_3">
	<g>
		<path class="st1" d="M263.89,346.8c-11.71,1.27-23.42,2.53-35.13,3.8c-1.86,0.2-3.91,0.51-5.17,2.18
			c-1.02,1.36-1.28,3.3-1.49,5.12c-1.89,16.25-3.78,32.5-5.67,48.75c27.27,14.89,46.56,45.03,70.99,65.95
			c5.45,4.67,12,9.06,18.48,7.13c6.48-1.93,10.42-13.69,4.95-18.34c2.54,6.91,10.42,9.97,15.8,6.12c5.37-3.85,6.99-13.69,3.23-19.74
			c3.58,4.8,10.31,5.47,14.49,1.45c4.18-4.03,5.17-12.13,2.13-17.45"/>
		<g>
			<path class="st0" d="M263.89,344.3c-6.6,0.71-13.19,1.43-19.79,2.14c-3.38,0.37-6.76,0.73-10.14,1.1
				c-2.86,0.31-6.12,0.26-8.84,1.25c-2.85,1.04-4.53,3.35-5.12,6.29c-0.62,3.1-0.81,6.33-1.18,9.47
				c-0.77,6.65-1.55,13.29-2.32,19.94c-0.86,7.39-1.72,14.77-2.58,22.16c-0.1,0.83,0.54,1.77,1.24,2.16
				c17.36,9.53,30.82,24.57,44.06,38.98c6.89,7.49,13.78,15.01,21.24,21.95c3.87,3.6,7.86,7.32,12.46,9.98
				c4.49,2.59,10.11,4.15,15.06,1.87c7.37-3.39,11.22-16.13,4.63-21.96c-0.84-0.74-2.03-0.98-3.03-0.39
				c-0.89,0.52-1.54,1.8-1.15,2.82c2.38,6.21,8.48,10.66,15.3,9.39c6.65-1.23,10.07-8.15,10.62-14.29
				c0.33-3.65-0.41-7.49-2.31-10.64c-1.44,0.84-2.88,1.68-4.32,2.52c2.3,2.98,5.38,4.92,9.18,5.27c3.53,0.32,7.14-1.09,9.57-3.66
				c4.93-5.21,5.59-13.97,2.18-20.14c-1.56-2.82-5.88-0.3-4.32,2.52c2.23,4.04,1.94,9.94-0.98,13.6c-2.89,3.63-8.46,3.58-11.32-0.12
				c-0.82-1.07-2.15-1.64-3.42-0.9c-1.16,0.68-1.6,2.26-0.9,3.42c2.86,4.74,2.19,12.19-1.93,15.97c-1.86,1.7-4.38,2.04-6.73,1.32
				c-2.56-0.79-4.8-2.97-5.8-5.6c-1.39,0.81-2.79,1.62-4.18,2.43c1.08,0.96,1.53,1.85,1.79,3.38c-0.05-0.32,0.05,0.53,0.05,0.68
				c0.02,0.42,0.01,0.84-0.01,1.25c-0.05,0.74-0.15,1.27-0.39,2.15c-0.42,1.53-1.02,2.85-2.04,4.2c-0.24,0.32-0.96,1.08-1.46,1.51
				c-0.26,0.22-0.11,0.11-0.55,0.38c-0.14,0.09-0.29,0.18-0.44,0.26c-0.01,0.01-0.71,0.32-0.32,0.17
				c-4.33,1.69-8.97-0.76-12.48-3.17c-4.01-2.76-7.6-6.21-11.12-9.57c-13.75-13.13-25.68-28.03-39.5-41.1
				c-7.57-7.16-15.77-13.79-24.93-18.82c0.41,0.72,0.83,1.44,1.24,2.16c1.45-12.47,2.9-24.95,4.35-37.42
				c0.35-3.04,0.71-6.07,1.06-9.11c0.21-1.79,0.06-5.13,1.74-6.29c0.71-0.49,1.67-0.6,2.5-0.71c1.54-0.2,3.09-0.33,4.63-0.5
				c3.13-0.34,6.27-0.68,9.4-1.02c7.09-0.77,14.18-1.53,21.27-2.3c1.34-0.15,2.5-1.05,2.5-2.5
				C266.39,345.56,265.24,344.16,263.89,344.3L263.89,344.3z"/>
		</g>
	</g>
	<g>
		<path class="st1" d="M397.8,369.12c8.6-1.66,17.57-1.57,26.11,0.25c2.55,0.54,5.17,1.3,7.03,2.99c2.71,2.46,3.19,6.27,3.45,9.77
			c1.08,14.65,0.89,29.39-0.56,44.03c-0.17,1.74-0.39,3.54-1.34,5.06c-1.75,2.77-5.47,3.85-8.89,4.41
			c-7.87,1.29-16.02,1.06-23.77-0.67"/>
	</g>
	<g>
		<path class="st1" d="M215.48,350.48c-2.98,15.68-5.01,31.53-6.07,47.43c-0.16,2.37-0.8,5.32-3.3,5.85c-0.65,0.14-1.34,0.07-2.01,0
			c-8.58-0.91-17.17-1.81-25.75-2.72c-2.63-15.03-1.63-30.58,2.91-45.17c0.81-2.6,1.87-5.35,4.25-6.93
			c2.98-1.97,7.05-1.48,10.67-0.91c5.46,0.86,10.92,1.71,16.39,2.57"/>
	</g>
	<g>
		<path class="st1" d="M409.83,370.9c0.05,21.67,0.1,43.35,0.15,65.02"/>
	</g>
	<g>
		<path class="st1" d="M388.42,364.57c-11.43,6.13-33.86-6.91-42.49-16.32c-8.63-9.41-13.95-21.35-23.25-30.17
			c-3.02-2.87-6.62-5.45-10.83-6.11c-5.75-0.9-11.35,1.9-16.43,4.6c-18.87,10.04-37.74,20.07-56.62,30.11
			c-2.29,1.22-4.66,2.5-6.18,4.53c-4.39,5.84,0.99,14.56,8.17,16.79c7.17,2.23,14.93,0.15,22.25-1.61
			c7.32-1.75,15.48-3.08,22.08,0.39c8.38,4.41,10.86,14.55,16.21,22.11c8.65,12.22,25.28,17.96,33.04,30.72
			c1.63,2.68,2.82,5.6,4.78,8.07c5.83,7.34,16.63,8.74,26.25,9.56c5.15,0.44,19.84,2.22,23.43-1.32c2.77-2.74,0.6-35.72,0.57-39.52
			C389.19,374.64,389.8,388.32,388.42,364.57"/>
		<g>
			<path class="st0" d="M387.16,362.41c-0.93,0.49-2.33,0.94-3.76,1.14c0.29-0.04-0.5,0.04-0.67,0.05c-0.37,0.03-0.73,0.04-1.1,0.04
				c-0.86,0.01-1.72-0.03-2.57-0.12c-3.19-0.31-6.89-1.48-10.07-2.76c-6.67-2.7-13.1-6.71-18.43-11.49
				c-6.48-5.8-10.92-13.47-15.85-20.53c-2.75-3.95-5.66-7.82-9.04-11.25c-3.32-3.37-7.26-6.52-11.94-7.69
				c-5.22-1.3-10.4,0.21-15.15,2.38c-4.88,2.24-9.56,4.96-14.29,7.48c-9.95,5.29-19.9,10.58-29.84,15.87
				c-4.97,2.65-9.95,5.29-14.92,7.94c-4.15,2.2-8.72,4.38-10.41,9.1c-2.8,7.81,4.33,15.94,11.46,17.98
				c10.29,2.94,20.3-1.91,30.41-3.15c4.42-0.54,9.21-0.49,13.2,1.72c3.32,1.84,5.65,4.84,7.58,8.04c2.08,3.47,3.77,7.17,5.87,10.63
				c2.15,3.54,4.84,6.7,7.9,9.49c6.1,5.57,13.29,9.79,19.46,15.28c2.98,2.65,5.66,5.58,7.66,9.05c1.21,2.09,2.21,4.31,3.58,6.3
				c1.3,1.88,2.83,3.49,4.64,4.88c6.76,5.17,15.77,6.19,23.99,6.9c6.38,0.56,12.88,1.4,19.27,0.53c2.47-0.34,5.71-1,7.09-3.34
				c0.91-1.55,1.04-3.6,1.21-5.34c0.53-5.46,0.35-11.02,0.21-16.49c-0.14-5.27-0.39-10.54-0.63-15.81
				c-0.35-7.78,0.06-15.56-0.4-23.33c-0.22-3.79-0.45-7.57-0.67-11.36c-0.19-3.2-5.19-3.22-5,0c0.31,5.39,0.77,10.78,0.92,16.18
				c0.11,3.86,0,7.73,0.02,11.58c0.06,10.14,0.88,20.26,0.87,30.4c0,2.56-0.04,5.13-0.22,7.68c-0.04,0.5-0.08,1-0.13,1.49
				c-0.02,0.23-0.05,0.45-0.08,0.68c0.02-0.22,0.06-0.32-0.03,0.18c-0.06,0.35-0.12,0.7-0.21,1.05c-0.07,0.29-0.5,1.3-0.07,0.37
				c-0.35,0.77,0.26-0.46-0.04,0.08c-0.06,0.1-0.43,0.26,0.09-0.07c-0.1,0.07-0.2,0.14-0.31,0.2c-0.11,0.05-0.23,0.12-0.34,0.18
				c-0.41,0.23,0.23-0.07-0.06,0.03c-0.54,0.2-1.1,0.36-1.66,0.48c-0.33,0.07-0.67,0.13-1,0.19c-0.24,0.04-0.46,0.07-0.97,0.12
				c-3.36,0.32-6.76,0.18-10.12-0.05c-6.89-0.47-14.03-0.85-20.69-2.76c-3.56-1.02-7.03-2.58-9.67-5.24
				c-3.11-3.13-4.49-7.53-7.05-11.07c-4.8-6.64-11.56-11.33-18.07-16.13c-3.14-2.32-6.25-4.69-9.07-7.4
				c-2.84-2.73-5.12-5.76-7.06-9.19c-3.86-6.84-7.02-14.76-14.26-18.77c-8.71-4.82-18.89-2.06-27.94,0.05
				c-7.74,1.81-18.57,3.75-23.67-4.18c-1.64-2.55-2.28-5.54-0.48-7.97c1.25-1.69,3.29-2.7,5.09-3.67c2.46-1.32,4.92-2.62,7.38-3.93
				c9.66-5.13,19.31-10.27,28.97-15.4c4.83-2.57,9.66-5.13,14.48-7.7c4.52-2.4,9.04-5.25,13.94-6.81c2.16-0.69,4.44-1.11,6.71-0.81
				c2.16,0.28,4.15,1.23,5.96,2.41c3.78,2.47,6.89,6.07,9.66,9.59c5.71,7.25,10.17,15.4,16.24,22.38
				c4.65,5.35,10.58,9.63,16.75,13.07c6.33,3.53,13.51,6.56,20.85,6.8c3.13,0.1,6.25-0.45,9.04-1.91
				C392.53,365.24,390.01,360.92,387.16,362.41L387.16,362.41z"/>
		</g>
	</g>
</g>
<g id="Layer_4">
</g>
</svg>
